<svg width="33" height="33" viewBox="0 0 33 33" fill="none" xmlns="http://www.w3.org/2000/svg">
<g clip-path="url(#clip0_119_881)">
<path d="M7.75 27.5V7.5C7.75 6.96957 7.96071 6.46086 8.33579 6.08579C8.71086 5.71071 9.21957 5.5 9.75 5.5H19.75C20.2804 5.5 20.7891 5.71071 21.1642 6.08579C21.5393 6.46086 21.75 6.96957 21.75 7.5V27.5" stroke="white" stroke-width="2" stroke-linecap="round" stroke-linejoin="round"/>
<path d="M4.75 27.5H24.75" stroke="white" stroke-width="2" stroke-linecap="round" stroke-linejoin="round"/>
<path d="M21.75 14.5H24.75C25.2804 14.5 25.7891 14.7107 26.1642 15.0858C26.5393 15.4609 26.75 15.9696 26.75 16.5V21.5C26.75 22.0304 26.9607 22.5391 27.3358 22.9142C27.7109 23.2893 28.2196 23.5 28.75 23.5C29.2804 23.5 29.7891 23.2893 30.1642 22.9142C30.5393 22.5391 30.75 22.0304 30.75 21.5V11.3287C30.75 11.0659 30.6983 10.8057 30.5977 10.5629C30.4971 10.3201 30.3496 10.0995 30.1637 9.91375L27.75 7.5" stroke="white" stroke-width="2" stroke-linecap="round" stroke-linejoin="round"/>
<path d="M17.75 14.5H11.75" stroke="white" stroke-width="2" stroke-linecap="round" stroke-linejoin="round"/>
</g>
<defs>
<clipPath id="clip0_119_881">
<rect width="32" height="32" fill="white" transform="translate(0.75 0.5)"/>
</clipPath>
</defs>
</svg>
